<svg width="1200" height="700" viewBox="0 0 1200 700" fill="none" xmlns="http://www.w3.org/2000/svg">
  <defs>
    <linearGradient id="bg4" x1="60" y1="40" x2="1120" y2="660" gradientUnits="userSpaceOnUse">
      <stop offset="0" stop-color="#0F241D"/>
      <stop offset="1" stop-color="#1F3F33"/>
    </linearGradient>
    <linearGradient id="ok" x1="0" y1="0" x2="1" y2="1">
      <stop offset="0" stop-color="#59F3A9"/>
      <stop offset="1" stop-color="#2ACB7D"/>
    </linearGradient>
    <linearGradient id="warn" x1="0" y1="0" x2="1" y2="1">
      <stop offset="0" stop-color="#FFE066"/>
      <stop offset="1" stop-color="#FFB347"/>
    </linearGradient>
  </defs>

  <rect width="1200" height="700" fill="url(#bg4)"/>
  <rect x="50" y="50" width="1100" height="600" rx="30" fill="#143227" stroke="#5DF5B0" stroke-opacity="0.35"/>

  <text x="95" y="92" fill="#E7FFF1" font-family="Segoe UI, sans-serif" font-size="24" font-weight="700">Proyecto 4 - Deteccion de fraude digital</text>

  <rect x="90" y="140" width="500" height="470" rx="20" fill="#183B2F"/>
  <text x="115" y="182" fill="#E7FFF1" font-family="Segoe UI, sans-serif" font-size="21" font-weight="700">Matriz de confusion (arbol)</text>

  <rect x="135" y="230" width="180" height="150" rx="14" fill="url(#ok)"/>
  <rect x="340" y="230" width="180" height="150" rx="14" fill="url(#warn)" fill-opacity="0.65"/>
  <rect x="135" y="405" width="180" height="150" rx="14" fill="url(#warn)" fill-opacity="0.65"/>
  <rect x="340" y="405" width="180" height="150" rx="14" fill="url(#ok)"/>

  <text x="165" y="314" fill="#09351E" font-family="Segoe UI, sans-serif" font-size="30" font-weight="800">1952</text>
  <text x="398" y="314" fill="#4B3000" font-family="Segoe UI, sans-serif" font-size="30" font-weight="800">0</text>
  <text x="205" y="489" fill="#4B3000" font-family="Segoe UI, sans-serif" font-size="30" font-weight="800">0</text>
  <text x="410" y="489" fill="#09351E" font-family="Segoe UI, sans-serif" font-size="30" font-weight="800">48</text>

  <text x="610" y="182" fill="#E7FFF1" font-family="Segoe UI, sans-serif" font-size="21" font-weight="700">Clusters y factores</text>
  <rect x="610" y="140" width="500" height="470" rx="20" fill="#183B2F"/>

  <circle cx="740" cy="330" r="86" fill="#2BD685" fill-opacity="0.85"/>
  <circle cx="885" cy="365" r="118" fill="#5DF5B0" fill-opacity="0.45"/>
  <circle cx="950" cy="285" r="72" fill="#FFE066" fill-opacity="0.75"/>

  <text x="700" y="334" fill="#0F3B26" font-family="Segoe UI, sans-serif" font-size="20" font-weight="700">6116</text>
  <text x="928" y="289" fill="#5C4300" font-family="Segoe UI, sans-serif" font-size="20" font-weight="700">1884</text>

  <text x="640" y="468" fill="#CCFBE0" font-family="Segoe UI, sans-serif" font-size="18">K-means (k=2) y AFE para</text>
  <text x="640" y="492" fill="#CCFBE0" font-family="Segoe UI, sans-serif" font-size="18">segmentar riesgo transaccional</text>
  <text x="640" y="530" fill="#CCFBE0" font-family="Segoe UI, sans-serif" font-size="16">Arbol podado preferido por interpretabilidad</text>

  <text x="95" y="632" fill="#BEF6D5" font-family="Segoe UI, sans-serif" font-size="18">Visual simulado basado en el notebook de Taller 3</text>
</svg>
