<svg width="1200" height="700" viewBox="0 0 1200 700" fill="none" xmlns="http://www.w3.org/2000/svg">
  <defs>
    <linearGradient id="bg2" x1="40" y1="40" x2="1160" y2="660" gradientUnits="userSpaceOnUse">
      <stop offset="0" stop-color="#0B1F3A"/>
      <stop offset="1" stop-color="#163C61"/>
    </linearGradient>
    <linearGradient id="accent2" x1="220" y1="170" x2="740" y2="560" gradientUnits="userSpaceOnUse">
      <stop offset="0" stop-color="#2EE6A0"/>
      <stop offset="1" stop-color="#2CB6FF"/>
    </linearGradient>
  </defs>

  <rect x="0" y="0" width="1200" height="700" fill="url(#bg2)"/>
  <rect x="50" y="50" width="1100" height="600" rx="30" fill="#0E2A4A" stroke="#2CB6FF" stroke-opacity="0.35"/>

  <rect x="90" y="100" width="1020" height="52" rx="12" fill="#102F52"/>
  <circle cx="130" cy="126" r="10" fill="#2EE6A0"/>
  <rect x="160" y="116" width="270" height="18" rx="9" fill="#9CC7F0" fill-opacity="0.7"/>
  <rect x="935" y="114" width="130" height="24" rx="8" fill="#2CB6FF" fill-opacity="0.35"/>

  <text x="95" y="90" fill="#DDF2FF" font-family="Segoe UI, sans-serif" font-size="24" font-weight="700">Proyecto 2 - Streamlit Vehiculos</text>

  <rect x="90" y="180" width="480" height="420" rx="22" fill="#0F365D" stroke="#2EE6A0" stroke-opacity="0.4"/>
  <rect x="620" y="180" width="490" height="420" rx="22" fill="#0F365D" stroke="#2CB6FF" stroke-opacity="0.4"/>

  <text x="115" y="222" fill="#DDF2FF" font-family="Segoe UI, sans-serif" font-size="21" font-weight="600">Histograma de odometro</text>
  <text x="645" y="222" fill="#DDF2FF" font-family="Segoe UI, sans-serif" font-size="21" font-weight="600">Dispersion precio vs odometro</text>

  <line x1="125" y1="550" x2="525" y2="550" stroke="#7FB6E8"/>
  <line x1="125" y1="260" x2="125" y2="550" stroke="#7FB6E8"/>
  <rect x="155" y="460" width="30" height="90" rx="6" fill="url(#accent2)"/>
  <rect x="195" y="400" width="30" height="150" rx="6" fill="url(#accent2)"/>
  <rect x="235" y="330" width="30" height="220" rx="6" fill="url(#accent2)"/>
  <rect x="275" y="300" width="30" height="250" rx="6" fill="url(#accent2)"/>
  <rect x="315" y="270" width="30" height="280" rx="6" fill="url(#accent2)"/>
  <rect x="355" y="310" width="30" height="240" rx="6" fill="url(#accent2)"/>
  <rect x="395" y="380" width="30" height="170" rx="6" fill="url(#accent2)"/>
  <rect x="435" y="440" width="30" height="110" rx="6" fill="url(#accent2)"/>

  <line x1="655" y1="550" x2="1070" y2="550" stroke="#7FB6E8"/>
  <line x1="655" y1="260" x2="655" y2="550" stroke="#7FB6E8"/>

  <circle cx="720" cy="500" r="7" fill="#2EE6A0"/>
  <circle cx="760" cy="468" r="7" fill="#2EE6A0"/>
  <circle cx="810" cy="438" r="7" fill="#2EE6A0"/>
  <circle cx="835" cy="405" r="7" fill="#2EE6A0"/>
  <circle cx="885" cy="388" r="7" fill="#2EE6A0"/>
  <circle cx="940" cy="360" r="7" fill="#2EE6A0"/>
  <circle cx="990" cy="340" r="7" fill="#2EE6A0"/>
  <circle cx="1040" cy="320" r="7" fill="#2EE6A0"/>

  <text x="96" y="632" fill="#BFE2FF" font-family="Segoe UI, sans-serif" font-size="18">Visual simulado del dashboard interactivo en Streamlit</text>
</svg>
